<svg width="54" height="42" viewBox="0 0 54 42" fill="none" xmlns="http://www.w3.org/2000/svg">
<circle cx="26.9865" cy="20.9062" r="13.4879" fill="white"/>
<path fill-rule="evenodd" clip-rule="evenodd" d="M26.9865 0C37.1564 0 46.6249 6.95975 53.6386 19.5844C54.1205 20.4191 54.1205 21.4474 53.6386 22.282C46.6249 34.9067 37.1564 41.8664 26.9865 41.8664C16.8166 41.8664 7.37511 34.9067 0.361407 22.282C-0.120469 21.4474 -0.120469 20.4191 0.361407 19.5844C7.37511 6.95975 16.8166 0 26.9865 0ZM8.10346 20.9062C8.10346 31.3351 16.5577 39.7893 26.9865 39.7893C37.4153 39.7893 45.8696 31.3351 45.8696 20.9062C45.8696 10.4774 37.4153 2.02318 26.9865 2.02318C16.5577 2.02318 8.10346 10.4774 8.10346 20.9062Z" fill="white"/>
</svg>
