<svg width="42" height="46" viewBox="0 0 42 46" fill="none" xmlns="http://www.w3.org/2000/svg">
<path d="M33.25 9.58331H31.5V5.74998C31.5 4.69143 30.7165 3.83331 29.75 3.83331C28.7835 3.83331 28 4.69143 28 5.74998V9.58331H14V5.74998C14 4.69143 13.2165 3.83331 12.25 3.83331C11.2835 3.83331 10.5 4.69143 10.5 5.74998V9.58331H8.75C5.8505 9.58331 3.5 12.1577 3.5 15.3333V17.25H38.5V15.3333C38.5 12.1577 36.1495 9.58331 33.25 9.58331Z" fill="#1F37B4"/>
<path d="M3.5 36.4166C3.5 39.5923 5.8505 42.1666 8.75 42.1666H33.25C36.1495 42.1666 38.5 39.5923 38.5 36.4166V21.0833H3.5V36.4166Z" fill="#1F37B4"/>
</svg>
