<svg width="54" height="54" viewBox="0 0 54 54" fill="none" xmlns="http://www.w3.org/2000/svg">
<path fill-rule="evenodd" clip-rule="evenodd" d="M0 27C0 12.0883 12.0883 0 27 0C34.1608 0 41.0284 2.84464 46.0919 7.90812C51.1554 12.9716 54 19.8392 54 27C54 41.9117 41.9117 54 27 54C12.0883 54 0 41.9117 0 27ZM37.8 27.0157C38.5199 27.0157 39.21 26.7281 39.717 26.217C40.2281 25.71 40.5157 25.0199 40.5157 24.3C40.5157 23.5801 40.2281 22.89 39.717 22.383L28.917 11.583C28.6602 11.3372 28.3574 11.1445 28.026 11.016C27.3687 10.746 26.6313 10.746 25.974 11.016C25.6426 11.1445 25.3398 11.3372 25.083 11.583L14.283 22.383C13.5981 23.0679 13.3306 24.0661 13.5813 25.0017C13.832 25.9372 14.5628 26.668 15.4983 26.9187C16.4339 27.1694 17.4321 26.9019 18.117 26.217L24.3 20.007V40.5C24.3 41.9912 25.5088 43.2 27 43.2C28.4912 43.2 29.7 41.9912 29.7 40.5V20.007L35.883 26.217C36.39 26.7281 37.0801 27.0157 37.8 27.0157Z" fill="white"/>
</svg>
