<svg width="45" height="48" viewBox="0 0 45 48" fill="none" xmlns="http://www.w3.org/2000/svg">
<g clip-path="url(#clip0_195_900)">
<path fill-rule="evenodd" clip-rule="evenodd" d="M21.3372 15.438C21.4668 15.2983 21.6207 15.1875 21.7903 15.1118C21.9598 15.0362 22.1415 14.9973 22.325 14.9973C22.5086 14.9973 22.6903 15.0362 22.8598 15.1118C23.0293 15.1875 23.1833 15.2983 23.3129 15.438L28.8942 21.438C29.0239 21.5775 29.1268 21.743 29.197 21.9252C29.2672 22.1075 29.3034 22.3028 29.3034 22.5C29.3034 22.6972 29.2672 22.8925 29.197 23.0747C29.1268 23.257 29.0239 23.4225 28.8942 23.562C28.7645 23.7015 28.6104 23.8121 28.4409 23.8876C28.2714 23.963 28.0898 24.0019 27.9063 24.0019C27.7228 24.0019 27.5412 23.963 27.3717 23.8876C27.2022 23.8121 27.0482 23.7015 26.9184 23.562L23.7204 20.121V31.5C23.7204 31.8978 23.5734 32.2794 23.3117 32.5607C23.05 32.842 22.6951 33 22.325 33C21.955 33 21.6001 32.842 21.3384 32.5607C21.0767 32.2794 20.9297 31.8978 20.9297 31.5V20.121L17.7317 23.562C17.4697 23.8436 17.1143 24.0019 16.7438 24.0019C16.3733 24.0019 16.0179 23.8436 15.7559 23.562C15.4939 23.2803 15.3467 22.8983 15.3467 22.5C15.3467 22.1017 15.4939 21.7196 15.7559 21.438L21.3372 15.438Z" fill="#001480"/>
<path d="M12.2955 10.026C15.0847 7.4404 18.6421 6.01241 22.3251 5.99999C29.8319 5.99999 36.0633 12 36.7415 19.737C41.1841 20.412 44.6501 24.411 44.6501 29.319C44.6501 34.707 40.4697 39 35.4047 39H10.5514C4.7664 39 0 34.098 0 27.954C0 22.665 3.53294 18.285 8.21004 17.175C8.6091 14.586 10.1579 12.006 12.2955 10.026ZM14.1178 12.297C12.0053 14.256 10.9002 16.617 10.9002 18.465V19.809L9.65838 19.956C5.75986 20.415 2.79063 23.856 2.79063 27.954C2.79063 32.355 6.22311 36 10.5514 36H35.4047C39.013 36 41.8595 32.964 41.8595 29.319C41.8595 25.671 39.013 22.635 35.4047 22.635H34.0094V21.135C34.0122 14.475 28.8216 8.99999 22.3251 8.99999C19.3108 9.01294 16.4001 10.1833 14.1178 12.3V12.297Z" fill="#001480"/>
</g>
<defs>
<clipPath id="clip0_195_900">
<rect width="44.2991" height="47.6226" fill="white" transform="scale(1.00792)"/>
</clipPath>
</defs>
</svg>
