<svg width="54" height="54" viewBox="0 0 54 54" fill="none" xmlns="http://www.w3.org/2000/svg">
<path fill-rule="evenodd" clip-rule="evenodd" d="M0 27C0 12.0883 12.0883 0 27 0C34.1608 0 41.0284 2.84463 46.0918 7.90811C51.1553 12.9716 54 19.8391 54 27C54 41.9117 41.9117 54 27 54C12.0883 54 0 41.9117 0 27ZM20.007 29.7H40.5C41.9911 29.7 43.2 28.4911 43.2 27C43.2 25.5088 41.9911 24.3 40.5 24.3H20.007L26.217 18.117C26.9019 17.4321 27.1693 16.4339 26.9187 15.4983C26.668 14.5628 25.9372 13.832 25.0017 13.5813C24.0661 13.3306 23.0679 13.5981 22.383 14.283L11.583 25.083C11.3372 25.3398 11.1445 25.6426 11.016 25.974C10.7459 26.6313 10.7459 27.3686 11.016 28.026C11.1445 28.3574 11.3372 28.6602 11.583 28.917L22.383 39.717C22.89 40.2281 23.5801 40.5156 24.3 40.5156C25.0199 40.5156 25.71 40.2281 26.217 39.717C26.7281 39.21 27.0156 38.5199 27.0156 37.8C27.0156 37.08 26.7281 36.3899 26.217 35.883L20.007 29.7Z" fill="white"/>
</svg>
