<svg width="54" height="54" viewBox="0 0 54 54" fill="none" xmlns="http://www.w3.org/2000/svg">
<path d="M45.9 0H18.9C14.4265 0 10.8 3.62649 10.8 8.09999V21.6H16.2C16.2091 19.4229 17.5247 17.4643 19.5366 16.6324C21.5484 15.8006 23.863 16.2581 25.407 17.793L30.807 23.193C32.9007 25.2992 32.9007 28.7008 30.807 30.807L25.407 36.207C23.3008 38.3007 19.8992 38.3007 17.793 36.207C16.7789 35.1989 16.206 33.8298 16.2 32.4H10.8V45.9C10.8 50.3735 14.4265 54 18.9 54H45.9C50.3735 54 54 50.3735 54 45.9V8.09999C54 3.62649 50.3735 0 45.9 0Z" fill="white"/>
<path d="M20.493 29.7L19.683 30.483C19.1718 30.99 18.8843 31.6801 18.8843 32.4C18.8843 33.1199 19.1718 33.81 19.683 34.317C20.19 34.8281 20.8801 35.1156 21.6 35.1156C22.3199 35.1156 23.01 34.8281 23.517 34.317L28.917 28.917C29.4281 28.41 29.7156 27.7199 29.7156 27C29.7156 26.2801 29.4281 25.59 28.917 25.083L23.517 19.683C22.4583 18.6243 20.7417 18.6243 19.683 19.683C18.6243 20.7417 18.6243 22.4583 19.683 23.517L20.493 24.3H2.7C1.20883 24.3 0 25.5088 0 27C0 28.4912 1.20883 29.7 2.7 29.7H20.493Z" fill="#FFE976"/>
</svg>
