<svg width="95" height="129" viewBox="0 0 95 129" fill="none" xmlns="http://www.w3.org/2000/svg">
<path d="M93.2008 32.3364L64.3255 1.35335C63.5204 0.489509 62.4335 0 61.293 0H4.29373C1.91876 0 0 2.05882 0 4.60714V124.393C0 126.941 1.91876 129 4.29373 129H90.1684C92.5433 129 94.4621 126.941 94.4621 124.393V35.6046C94.4621 34.3808 94.0059 33.2002 93.2008 32.3364ZM84.5597 37.721H59.3072V10.6252L84.5597 37.721ZM84.8012 118.634H9.6609V10.3661H50.183V41.4643C50.183 43.068 50.7767 44.6061 51.8336 45.7401C52.8905 46.8741 54.3239 47.5112 55.8185 47.5112H84.8012V118.634Z" fill="#A8A8A8"/>
</svg>
