<svg width="45" height="44" viewBox="0 0 45 44" fill="none" xmlns="http://www.w3.org/2000/svg">
<path fill-rule="evenodd" clip-rule="evenodd" d="M22.5 25.6667V18.3333C22.5 17.3208 23.3395 16.5 24.375 16.5H41.25V27.5H24.375C23.3395 27.5 22.5 26.6792 22.5 25.6667ZM33.75 22C33.75 19.975 32.0711 18.3333 30 18.3333C27.9289 18.3333 26.25 19.975 26.25 22C26.25 24.025 27.9289 25.6667 30 25.6667C32.0711 25.6667 33.75 24.025 33.75 22Z" fill="#1F37B4"/>
<path d="M24.375 31.1667C21.2684 31.1667 18.75 28.7043 18.75 25.6667V18.3334C18.75 15.2958 21.2684 12.8334 24.375 12.8334H41.25V9.16669C41.25 6.12912 38.7316 3.66669 35.625 3.66669H9.375C6.2684 3.66669 3.75 6.12912 3.75 9.16669V34.8333C3.75 37.8709 6.2684 40.3334 9.375 40.3334H35.625C38.7316 40.3334 41.25 37.8709 41.25 34.8333V31.1667H24.375Z" fill="#1F37B4"/>
</svg>
