<svg width="316" height="23" viewBox="0 0 316 23" fill="none" xmlns="http://www.w3.org/2000/svg">
<path fill-rule="evenodd" clip-rule="evenodd" d="M47.8702 8.01826L45.2874 17.2641H42.6009L39 3.73293H41.9505L44.0902 13.532H44.1657L46.7108 3.73293H49.1145L51.6596 13.532H51.735L53.8843 3.73293H56.8347L53.2244 17.2641H50.5379L47.9551 8.01826H47.8702ZM60.7561 15.4449C61.9532 15.4449 62.943 14.6666 62.943 13.5789V12.8475L60.8126 12.9787C59.7852 13.0538 59.2007 13.5132 59.2007 14.2259C59.2007 14.9761 59.8229 15.4449 60.7561 15.4449ZM59.8512 17.4235C57.9282 17.4235 56.4671 16.1857 56.4671 14.3759C56.4671 12.5474 57.881 11.4878 60.3979 11.3378L62.943 11.1877V10.5219C62.943 9.58424 62.2832 9.04037 61.2463 9.04037C60.2188 9.04037 59.5684 9.54673 59.4364 10.2875H56.9195C57.0232 8.33709 58.6917 6.99616 61.3688 6.99616C63.9611 6.99616 65.6484 8.32771 65.6484 10.3532V17.2641H62.9901V15.7262H62.9336C62.368 16.7952 61.1143 17.4235 59.8512 17.4235ZM67.4865 17.2641V3.73293H70.239V17.2641H67.4865ZM72.162 17.2641V3.73293H74.9145V17.2641H72.162ZM81.3056 9.02161C80.099 9.02161 79.2318 9.93119 79.1375 11.1877H83.4265C83.37 9.90306 82.531 9.02161 81.3056 9.02161ZM83.4642 14.1884H85.9905C85.6889 16.1576 83.879 17.4797 81.381 17.4797C78.2703 17.4797 76.4039 15.5012 76.4039 12.2848C76.4039 9.07787 78.2892 6.99616 81.2773 6.99616C84.2183 6.99616 86.0753 8.97473 86.0753 12.0317V12.8662H79.1092V13.035C79.1092 14.4697 80.0236 15.4543 81.4281 15.4543C82.4368 15.4543 83.2097 14.9573 83.4642 14.1884ZM88.2246 4.89569H90.9771V7.21183H92.8435V9.27479H90.9771V14.0852C90.9771 14.8542 91.3541 15.2199 92.1648 15.2199C92.4099 15.2199 92.6644 15.2011 92.8341 15.173V17.1891C92.5513 17.2547 92.0799 17.3016 91.5238 17.3016C89.1483 17.3016 88.2246 16.5139 88.2246 14.5541V9.27479H86.8012V7.21183H88.2246V4.89569ZM100.601 17.4985C96.6423 17.4985 94.1632 14.8635 94.1632 10.4938C94.1632 6.13347 96.6612 3.4985 100.601 3.4985C103.872 3.4985 106.361 5.56147 106.578 8.59027H103.806C103.542 6.93052 102.26 5.84278 100.601 5.84278C98.4522 5.84278 97.0665 7.6338 97.0665 10.4844C97.0665 13.3726 98.4333 15.1542 100.611 15.1542C102.298 15.1542 103.514 14.1696 103.816 12.5662H106.587C106.267 15.5856 103.938 17.4985 100.601 17.4985ZM112.743 17.4797C109.688 17.4797 107.737 15.5293 107.737 12.2286C107.737 8.97473 109.717 6.99616 112.743 6.99616C115.768 6.99616 117.748 8.96535 117.748 12.2286C117.748 15.5387 115.797 17.4797 112.743 17.4797ZM112.743 15.3887C114.091 15.3887 114.948 14.254 114.948 12.238C114.948 10.2406 114.081 9.08725 112.743 9.08725C111.404 9.08725 110.527 10.2406 110.527 12.238C110.527 14.254 111.385 15.3887 112.743 15.3887ZM119.162 17.2641V7.21183H121.82V9.00286H121.877C122.414 7.75571 123.479 7.02429 125.035 7.02429C127.278 7.02429 128.541 8.43086 128.541 10.7845V17.2641H125.789V11.3565C125.789 10.0437 125.167 9.29355 123.932 9.29355C122.697 9.29355 121.914 10.1937 121.914 11.4972V17.2641H119.162ZM130.285 17.2641V7.21183H132.943V9.00286H133C133.537 7.75571 134.602 7.02429 136.158 7.02429C138.401 7.02429 139.664 8.43086 139.664 10.7845V17.2641H136.912V11.3565C136.912 10.0437 136.29 9.29355 135.055 9.29355C133.82 9.29355 133.038 10.1937 133.038 11.4972V17.2641H130.285ZM145.942 9.02161C144.736 9.02161 143.868 9.93119 143.774 11.1877H148.063C148.007 9.90306 147.168 9.02161 145.942 9.02161ZM148.101 14.1884H150.627C150.326 16.1576 148.516 17.4797 146.018 17.4797C142.907 17.4797 141.041 15.5012 141.041 12.2848C141.041 9.07787 142.926 6.99616 145.914 6.99616C148.855 6.99616 150.712 8.97473 150.712 12.0317V12.8662H143.746V13.035C143.746 14.4697 144.66 15.4543 146.065 15.4543C147.073 15.4543 147.846 14.9573 148.101 14.1884ZM161.307 10.9533H158.753C158.592 9.89368 157.885 9.14352 156.754 9.14352C155.397 9.14352 154.549 10.2875 154.549 12.2286C154.549 14.2071 155.397 15.3324 156.764 15.3324C157.867 15.3324 158.583 14.676 158.753 13.5789H161.317C161.175 15.9513 159.394 17.4797 156.735 17.4797C153.691 17.4797 151.758 15.5106 151.758 12.2286C151.758 9.00286 153.691 6.99616 156.717 6.99616C159.45 6.99616 161.185 8.67466 161.307 10.9533ZM163.381 4.89569H166.134V7.21183H168V9.27479H166.134V14.0852C166.134 14.8542 166.511 15.2199 167.321 15.2199C167.566 15.2199 167.821 15.2011 167.991 15.173V17.1891C167.708 17.2547 167.236 17.3016 166.68 17.3016C164.305 17.3016 163.381 16.5139 163.381 14.5541V9.27479H161.958V7.21183H163.381V4.89569Z" fill="white"/>
<path d="M6.68136 5.40674C12.0037 0.19576 20.6328 0.19576 25.9551 5.40674L26.5957 6.03389C26.8618 6.29444 26.8618 6.71687 26.5957 6.97742L24.4045 9.12277C24.2714 9.25305 24.0557 9.25305 23.9226 9.12277L23.0412 8.25974C19.3282 4.62443 13.3083 4.62443 9.59531 8.25974L8.65133 9.18398C8.51827 9.31425 8.30254 9.31425 8.16949 9.18398L5.9783 7.03862C5.71218 6.77807 5.71218 6.35564 5.9783 6.09509L6.68136 5.40674ZM30.4867 9.84356L32.4369 11.7529C32.703 12.0135 32.703 12.4359 32.4369 12.6965L23.6435 21.3061C23.3773 21.5666 22.9459 21.5666 22.6798 21.3061C22.6798 21.3061 22.6798 21.3061 22.6798 21.3061L16.4387 15.1956C16.3722 15.1304 16.2644 15.1304 16.1978 15.1956C16.1978 15.1956 16.1978 15.1956 16.1978 15.1956L9.95693 21.3061C9.69082 21.5666 9.25936 21.5666 8.99324 21.3061C8.99324 21.3061 8.99324 21.3061 8.99324 21.3061L0.199586 12.6964C-0.0665288 12.4358 -0.0665288 12.0134 0.199586 11.7528L2.14975 9.84345C2.41586 9.5829 2.84732 9.5829 3.11344 9.84345L9.35455 15.954C9.42108 16.0192 9.52895 16.0192 9.59548 15.954C9.59548 15.954 9.59548 15.954 9.59548 15.954L15.8363 9.84345C16.1024 9.58289 16.5338 9.58288 16.8 9.84343C16.8 9.84343 16.8 9.84343 16.8 9.84344L23.0411 15.954C23.1076 16.0192 23.2155 16.0192 23.282 15.954L29.523 9.84356C29.7891 9.58301 30.2206 9.58301 30.4867 9.84356Z" fill="#3B99FC"/>
<rect x="293" width="23" height="23" rx="11.5" fill="white"/>
<g clip-path="url(#clip0_203_1287)">
<path d="M309.75 6.25L299.25 16.75" stroke="#31343B" stroke-width="1.5" stroke-linecap="round" stroke-linejoin="round"/>
<path d="M299.25 6.25L309.75 16.75" stroke="#31343B" stroke-width="1.5" stroke-linecap="round" stroke-linejoin="round"/>
</g>
<defs>
<clipPath id="clip0_203_1287">
<rect width="12" height="12" fill="white" transform="translate(298.5 5.5)"/>
</clipPath>
</defs>
</svg>
