<svg width="55" height="54" viewBox="0 0 55 54" fill="none" xmlns="http://www.w3.org/2000/svg">
<path fill-rule="evenodd" clip-rule="evenodd" d="M0 27C0 12.0883 12.1881 0 27.2229 0C34.4428 0 41.3671 2.84463 46.4724 7.90812C51.5776 12.9716 54.4457 19.8392 54.4457 27C54.4457 41.9117 42.2577 54 27.2229 54C12.1881 54 0 41.9117 0 27ZM20.1722 29.7H40.8343C42.3378 29.7 43.5566 28.4912 43.5566 27C43.5566 25.5088 42.3378 24.3 40.8343 24.3H20.1722L26.4334 18.117C27.1239 17.4321 27.3936 16.4339 27.1409 15.4983C26.8881 14.5628 26.1513 13.832 25.208 13.5813C24.2648 13.3306 23.2583 13.5981 22.5678 14.283L11.6786 25.083C11.4308 25.3398 11.2365 25.6426 11.1069 25.974C10.8347 26.6313 10.8347 27.3687 11.1069 28.026C11.2365 28.3574 11.4308 28.6602 11.6786 28.917L22.5678 39.717C23.0789 40.2281 23.7747 40.5157 24.5006 40.5157C25.2265 40.5157 25.9223 40.2281 26.4334 39.717C26.9488 39.21 27.2387 38.5199 27.2387 37.8C27.2387 37.0801 26.9488 36.39 26.4334 35.883L20.1722 29.7Z" fill="white"/>
</svg>
